# xmcd
#
# Track frame offsets:
#	150
#	2657
#	18910
#	34150
#	47855
#	64587
#	76832
#	88857
#	104040
#	115057
#	127535
#	141472
#
# Disc length: 2016 seconds
#
# Revision: 1
# Processed by: cddbd v1.5.2PL0 Copyright (c) Steve Scherf et al.
# Submitted via: audiograbber 1.83.01
#
DISCID=9507de0c
DTITLE=Mountain Man - Best Of Mountain Man
DYEAR=1993
DGENRE=
TTITLE0=Mountain Man Theme Song
TTITLE1=Back to the Mountain
TTITLE2=Double Trouble
TTITLE3=Wish I Had a Nickel
TTITLE4=I've Been There
TTITLE5=Old Man from the Mountain
TTITLE6=Proud to Be Your Boy
TTITLE7=I'm in Love With a Stranger
TTITLE8=No Love Without You
TTITLE9=I'll Always Care
TTITLE10=Back on the Job
TTITLE11=When Jesus Comes
EXTD=
EXTT0=
EXTT1=
EXTT2=
EXTT3=
EXTT4=
EXTT5=
EXTT6=
EXTT7=
EXTT8=
EXTT9=
EXTT10=
EXTT11=
PLAYORDER=
